<mxfile scale="1" border="0" disableSvgWarning="true"><diagram id="ZnX_tgkj1T826i8ewtRs" name="Page-1"><mxGraphModel dx="873" dy="787" grid="1" gridSize="10" guides="1" tooltips="1" connect="1" arrows="0" fold="1" page="1" pageScale="1" pageWidth="850" pageHeight="1100" math="0" shadow="0"><root><mxCell id="0"/><mxCell id="1" parent="0"/><mxCell id="14" style="edgeStyle=orthogonalEdgeStyle;curved=1;html=1;exitX=1;exitY=0.75;exitDx=0;exitDy=0;entryX=0;entryY=0.5;entryDx=0;entryDy=0;" edge="1" parent="1" source="2" target="11"><mxGeometry relative="1" as="geometry"/></mxCell><mxCell id="15" style="edgeStyle=orthogonalEdgeStyle;curved=1;html=1;exitX=1;exitY=0.25;exitDx=0;exitDy=0;entryX=0;entryY=0.75;entryDx=0;entryDy=0;" edge="1" parent="1" source="2" target="3"><mxGeometry relative="1" as="geometry"/></mxCell><mxCell id="2" value="" style="image;html=1;image=img/lib/clip_art/people/Security_Woman_Black_128x128.png" vertex="1" parent="1"><mxGeometry x="10" y="160" width="80" height="80" as="geometry"/></mxCell><mxCell id="3" value="" style="image;html=1;image=img/lib/clip_art/finance/Coins_128x128.png" vertex="1" parent="1"><mxGeometry x="140" y="77.5" width="80" height="65" as="geometry"/></mxCell><mxCell id="11" value="" style="shape=image;imageAspect=0;aspect=fixed;verticalLabelPosition=bottom;verticalAlign=top;image=data:image/jpeg,/9j/4AAQSkZJRgABAQEBLAEsAAD/4SRoRXhpZgAASUkqAAgAAAAHAA4BAgA6AAAAYgAAABoBBQABAAAAnAAAABsBBQABAAAApAAAACgBAwABAAAAAgAAADEBAgAOAAAArAAAADIBAgAUAAAAugAAAGmHBAABAAAAzgAAAC4BAABDUkVBVE9SOiBnZC1qcGVnIHYxLjAgKHVzaW5nIElKRyBKUEVHIHY2MiksIHF1YWxpdHkgPSA5MAoALAEAAAEAAAAsAQAAAQAAAEdsaW1wc2UgMC4yLjAAMjAyMzowMjowMyAyMDowNzoxNgACAIaSBwBBAAAA7AAAAAGgAwABAAAAAQAAAAAAAAAAAAAAAAAAAENSRUFUT1I6IGdkLWpwZWcgdjEuMCAodXNpbmcgSUpHIEpQRUcgdjYyKSwgcXVhbGl0eSA9IDkwCgAIAAABBAABAAAAAAEAAAEBBAABAAAA1gAAAAIBAwADAAAAlAEAAAMBAwABAAAABgAAAAYBAwABAAAABgAAABUBAwABAAAAAwAAAAECBAABAAAAmgEAAAICBAABAAAAxSIAAAAAAAAIAAgACAD/2P/gABBKRklGAAEBAAABAAEAAP/bAEMACAYGBwYFCAcHBwkJCAoMFA0MCwsMGRITDxQdGh8eHRocHCAkLicgIiwjHBwoNyksMDE0NDQfJzk9ODI8LjM0Mv/bAEMBCQkJDAsMGA0NGDIhHCEyMjIyMjIyMjIyMjIyMjIyMjIyMjIyMjIyMjIyMjIyMjIyMjIyMjIyMjIyMjIyMjIyMv/AABEIANYBAAMBIgACEQEDEQH/xAAfAAABBQEBAQEBAQAAAAAAAAAAAQIDBAUGBwgJCgv/xAC1EAACAQMDAgQDBQUEBAAAAX0BAgMABBEFEiExQQYTUWEHInEUMoGRoQgjQrHBFVLR8CQzYnKCCQoWFxgZGiUmJygpKjQ1Njc4OTpDREVGR0hJSlNUVVZXWFlaY2RlZmdoaWpzdHV2d3h5eoOEhYaHiImKkpOUlZaXmJmaoqOkpaanqKmqsrO0tba3uLm6wsPExcbHyMnK0tPU1dbX2Nna4eLj5OXm5+jp6vHy8/T19vf4+fr/xAAfAQADAQEBAQEBAQEBAAAAAAAAAQIDBAUGBwgJCgv/xAC1EQACAQIEBAMEBwUEBAABAncAAQIDEQQFITEGEkFRB2FxEyIygQgUQpGhscEJIzNS8BVictEKFiQ04SXxFxgZGiYnKCkqNTY3ODk6Q0RFRkdISUpTVFVWV1hZWmNkZWZnaGlqc3R1dnd4eXqCg4SFhoeIiYqSk5SVlpeYmZqio6Slpqeoqaqys7S1tre4ubrCw8TFxsfIycrS09TV1tfY2dri4+Tl5ufo6ery8/T19vf4+fr/2gAMAwEAAhEDEQA/APf6KKKACiiigAooooAKKKKACiiigAooooAKKKKACiiigAooooAKKKKAEFLRRQAGkqvfXtvp9o9zdSiKFOWY9BUdjqVpqUAmtJ1mjPG5aALvako/GjvQAUooooAKDRRQAlFLRQAUUUYoAKKKO9ABRRRQAZooooATNLSUUBcXNGaSigAzS0lLQAUUUUAFGaKKAEzRmikzQG46mSSpEuWNO696y7+dAxLsFRO5pPYDlfi1ch/h5qKwEszxlQFBJPFfPng/x/qGgXCgTbSDjkHGMd6+oJreG4iZHVXjbqp6GuD8RfCPw9rBMkUBspgMDyAqr+OBz1ouB1nhDx9Y+I4Vjd1iuscpg4PHUdeOtdiDzivly/8Ah34s8Iv52mEX0MZBEi7VKHpwC2T27d69q+F3iO+1/wANZ1VXS+hkMbh1IJAA55980wO6ooooAKKKKACiiigAooooAKKKKACiiigAooooASkzSMcVzet+JU0+dLeJ13t1JyaqMW9jOpVjTV2dLmq895BbqTLIAB+dcNJ4hvWuCq3BCkZ5b/69OtJY76R2kcySL13c4qvZNHP9bi9InRnxHEZsRwu6D+Lp/OtWzu0vbdZo8hTkYPscVy5wsZAAAx26Vv6L/wAgyP6n+ZqZKxtCTe5o96Wk4zRUmwtIaKQnFADWYKuW4A7mvKfGXxSuNP1E2OhJDK0RHmySqxHTPGCPUVL8R/HxtWOiaQ++7kOJXUH5AV7HjnketcHYaVFDCRMiySvyxYA16GEwvN70tjycwzBUFyrc9G8JfFBdbu4bC6s2S5kJwyD5T+prR8ZTONJaJSQ7elYHw98NwW13PqQU427Ezjg8HIrd14ee2Mce9cmKjGM+WJ2YKq6tLmZR8ESajextDdXBdgMhm59K6yVZrbJlX5B/HmsvwlbrFcSYH8PatvxLL9n8OXsucbY+v4iudI62VUlhnAKMD6YOaWBPssjSwqoZz8xHevkrQPH/AIg0BkS1uy8IP+qkJK+nYivqfw9Neaj4a03VJyoa6t0lZVGACwBx196ewG7HqQ/5arg+oq9HIsqBkOQa527fgKOw5rX0z/jyT3/wouIu0ppKU1QAKKKKACiiigAooooAKKKKACm55pT0phOASfr9KAMXxNq40zTiVx5r8KPbjP6GvP7i1i1O4sruC5DOrhpA456j1/Gr/iW+fVdaFrEx2o5QYPTB+Y/iKc2lW5C+WDHIoxuXjp3rsp2hHzPCxM6labtsMXSJhqLTGFGVsntx71asLSa0u3Vtu2U5AUdMf/rrmtRbxPpd159vI91a9Cu85x7DNXdL8b2LOsF+kltcdP3gPX64pTbaCjFJ66HVy8I2fQ10Wi/8guL8f51zaXEF1AXikVwV4w2a6XRxt02L8f51zNHq0r3L+OaKQmkLYHPFSbik1xnxB8SXWiaOUsU3XUwIVs42jB5/PFbWqeILawYRhlkmI4QNXJa7cxeIrcxXVv5Dr/q5fvY4op1KcZrn2LqYavOnemtTyKxkWKZr67LNdO/JcEkD1/Sr8mpuJswvG4PAU9aqePyNMW3it5YXlwQxCYOPXOfpWL4ReLUvEllHLDh0YlieQeD/AI17CxMLWgz52eWzlPmrbn0ho1v9g0WGHaFcL8+O5rPv5V34PNX1uSYwh/MVVlh3c7Qf1rxZycpNs96lBQilHoN0rVE0+Ys0ZIYY4OKteL9UguPBWptbuS4iGFAOc5HQVh3gMZHGPpVI3IOUkAI6EHnNSpF3ufMVrCxvoo3Qht4BB4NfZfh7914Q0eHoEs4wfb5a83u/BWg6vcrL9iiguAwIeFAvIOecDmvT7aD7Hp0FuG3COMID9KpO4iCYZJJNTWupvbMkb7dmcCsjXtZt9FsZLmcj/ZXuxzXAQfEB3vke6tCYt3RTyKxr4fEzSlQGq9GD5ah7sp3KCOhp9cvovjjRNWiQRXIifoUcEY/EgV0Uc8cq7kkVh6g5zW/LKKXORGcZfCyWikBzS0eZQtFFFMAoo5pKAFopKKAA9KxvEWpLp2mSOG/eONqjPX1/nWwTgZzXm3izUG1HVVtIWyqMUAHPOcMfyq6auzlxVTkhbqynosPmSTXsvJJ2oT1PXJ/Gtg5ptvbpbW8cS4wiAZx1wKk68/yrZvW5wwhZCAkDHU1n3+habqin7RaRFj/GEAb88Vf3DPUVWv737HAJCpG7hSemaly5Vc3hTc3y21OXm8L6npLmXRr+Xyx0gZjj6ferX0v4h32ihLTXNNkRQceaoO369DUH9tXkcvPlsuQeuaNQvIdRtJ0nVJZFiZlDc447Vk8RB6M7aeW11qmdJd/EGGSASabELhSM538g+m3GaqnxlJexlLkSWZx2Jz+YryYRywyM9vJJAwP8BI/lV9tYvGt/LvYvOTBG5DhvxPNYTSl8Mj0qCdFfv4X80WvGGpMmqW89rOzHafnDHPauot9FurPRTe3uoXFzJsL+UshGMfic1S0rSdF1myt3ueCmRg5TPJ6mt2CUNcXkEZLRCPCjfnPA7dqKeGb+MrF5zTioxonEweErfxVFI8sMsMikhZJX3YHrg4zXOWPh+bwv4vtg0pdVkxuxwwK565r0xw9tp1w8RaEjp83HTtVr7Rpl5o8D3Vtb+cBn7gZgee+Mit/YuMUonn/2jCU37RaGxE4Zc5xUc+qQWwwX+b0BrmP7VkuZDHDIYIx/Ex//AFVoWqWR58xJX/vM4alaK+JnN7aVTWCJ5NYR42knsyIx/EDt/pU17ohcFoGB9O1Z2rsW01wBgkgDH1rqVbjjrUyV9TSk3szF0Cyk/tHMqkLHzhhwe1dJqN7BY2r3Fw4SNBmoUlWLMhIAxycdq8q8a+NE1K6NtC7C2Q4AGSHOetaUKTnLQdaooIp6zqN14n1UyHctupxGmSQo55x61cHh23CKzko23O4nj8qwIdUlNr/xLViEg+8XYU9devP3QvlbpjjOK9hRslGOiPn6s5czktWUNbSa1l2wkbEONy8Z5rf8Ba/rCaslm99cSRuAQjSsQvXgDPFRRwLq4klaMRRICUB5Le+PSrXwoso7zxrP5oJEZYj/AMe/wrkxtPnpOx15dUanqe/2pdrWJnzvKLn64qemrgAAdBTq82CaSTPZb6i0UUVQBSUtJQAHrSZpaaT1oEZPiPVotI0ia4lYDgKOeckgf1rzfSzLd3El8pDbSVVm9ecmrfxG1RZb6OxZ9scQ3Nk8E5x/Subsb+S2UeQ42Hnbng130KKcfM+dzDF2q+9sjqxdXMRPnxllz94dKjudQnCD7Oo9Tk1Sj15Wtx5ybQflG5sA/jirMSiePf8AIDjor7utROk2rM0oYuKaa1RXg12WNyZ0QkH0/pWT4m1Ga8s0kSUlN3CrwByO1ad7piyqcgg+q1nXNmsWizQbTK6qxXjnPJFccqVS9j3qOLw2ktmcyt1OqgvMUX1Z8VqaLeRR3ryzTK8flkZ3bq8z1S51HzHS5LoFOAhBFVYr66tCrR3DDPVdxx+VZywy+Z2xzZt2toepalcWLzMbaM89Tng/hWf5rbQB0FYGm64LkBZgFf19a2kcMBtIrinTlB3Z7mGxFGrC0DUsdRmUJAV3Rg8BeDWlLrdhp07M140TsMcIT+FZmntDbpJcTMBsUlAfWuMurh9W16O3jJILZPHT/Oa6qGIqJWTueZjssw1Ruo1Y9at9TtmtTcy3HmRMNoR4+M+vP0NYN34ntZJS0UCggYG04GfcY5rM1y8GnaZHEhw33Qucdic1zUV7G64wAxOc5q62ImtjhwmWYdtuaujobjWWkyx4J9Diufk1nVNKmEscrurdI+T+VWvL862+Q7mz2NSSzLAiFolcg4AZa5Izkndnq1aFNxUIqx1//CQi70GGWVWhkJG5XOCD+IrvINTt5SAkyE/7wry02Et7ZlCjIc5C4zg0+7Go6VF5m4Sw4xuRsEflVyxBzUcsu2zvb7xCksUtvBbvKhGPMUkD+VecXnhi8t7WRo2WbHIDJg/zNRWmt3VvGY45G5OfmOa1X1WWfR3eR280vgFTjjilDGVaMvdeh6NTI6NWOqPOjqvkz+RPG0ABw0iZ/oK27SJY41uJrtprdiCm9yxx24J4qpd6L58zMyspbnJyQaux2SpawwsRiMAA+uK9SlmEbe9ueJX4erKdqa0HWGrXA1q5GCsKoVUZ4UfNgV3nwdhhTXruaR2E8gyqbT0w3f8AGuHWJEPygAnqeteg/CePdrly46Kg6j1DVzyxrqPkR0vIY4anKtJ6nsyjmn01RinUHm7getFBpMimAZyetIWGPQVh+IfE1p4eiRrgMzOcKqjr1/wrgb7xxd6kzCKXyoj2RufzrCpXjT3O7D5fWrrmitDu9X8UW2nSiCN45Z25CbwP89KxpvFt4w2+WI93vnH6V5frWpSLqUMwkYsI+pP1rPfW7nzd/nMTk4G7pXNKtKWsT3KOT01Fc25qeNLj7TeCf7Qpl54Lct+FcgmtzW8irNHIo4weR+nerc/napPu+ZiD8zDtn+VdFZ+FoWs1LOkqsoyzHp+NdEMW4Wbep5eKyWE7wsmiG1uTqVgjhWeENkkDofetSG8eFgYpcYxgE/0rPaxbTYpItPvY4uvynDqfzNcrPfa9pt0TcQGeFzuyikDH1xXp0MfTqLXc+Nx/DeJw75ouy6HpsOttIfLmiO4/xLzn8MVZVobqQRqyucjKq3zL9RXDaRrQuXQorJICCUYZ/U1qQytFczTB2R5Dk9vWurljNXgeT7Wth3yVkamu+EYb9C8cI34/u5z+Neb6v4MuoJCY7eXj0RiPzr0yz8RXNvhZAJU/z7VqpqOn3sZcsqsBkhsVlKm1ujroYqEn7srHiek2r6XqEbahayC3yAzMhAHPWt95rdtUjisW3pKRtUHOOlekyafb30RYW4ZPUpWDc+Co4na809vs9wPu7gWX9enIrCdNTVmerh8XOm+aOhx2vXv2ON4m+UgYIz2IzUHgqxLtNqswODkKSPp/hUeq+Gdcv9aMdwpdJXVQ0YJA4Az0rspdNj03S1021HzIM5PGW6/1rkjS5Gz254yVeCSZ5/4m1b7bqflq37uIYzn6VW0+1uL6UR26FmAySOQPc1uWHgG5url3vLqMKzE7YzuP9K27+xtvDEMT2a7XZtrEnORgnv8AQVlUaepvRctImZbeHdQXBE8afRquX+ltBDhy0hXkPtxUv9vLchdsOG6ZDVeitL3UL1bZY5AhGTlScVz6tnc4WV5Mo6f4lk/s8RyIGk34B6HGPpV/U9TE00KqAUKZZQOCeapz6NBo9o8Uk0E854BjkyV+oqiJCGDDqBisqqSeh7WXUVON2hrWvLEFRznFODlYQgzjOcdKbkn1/nSMdq5JwAOeazV3uepyRgrle81G3tmUXEoUtwOelTTafcalbiTSryCbK527hkflmuI1OV9Tvyw3eX91AP4q1tP8O+KraAXVjp+pLF94FY3wR+Vdiw75bx3PlMXnEnUcY7I0LZNQsmMN/bTxjOA8iEA/iRXqvwhAbUr9uwVP/Zqyfhf4st9Wnk8NeIbaP7Sc7HlABOM5HIyDwO/evYNH8N6ZobSmwt/KMp+b5ic4z6n3NXTpNNNnJWzJ1KLpyNce9GaBR0rpZ5Ip64qjf38VjEHkIyThRnqaumuB8cX0n9oWljE2DIuf/Quf0rmxVR06TkjfD0va1FEwPE2uWPiC6ELxbo4xlZQ5xnn0+tcldWC2oVw0nlseZAOMdj+ddQIvsOjOJbRJJQPugnOeP096zNPv7fUNNe0Ybiw3DPGDxx+lfOxrzm+bc+tws/Zx5YbGFIZg5iuEEq9mUdR7etV1sbSW44cgZ5Ruv86uPO8DFGAcKdp9qafs9zxwrfXFdsZvc9N020X7dLW1tpVhVVBXnd1/WsePUpo7QRpKwXPK1OyXMKkK4kj9D/jVBolclc+W3o3FaxlfczhFU9WD3shQjcMZ/OrNnNcM374K8WBw3p+VUWtmU4Y5HXIqeO4VZEA5AwCCetaqTj8Jz16FPFPlqLQ0ZYtPEZnt7cw3AIOQ5P6VVubnUUtvORBIGPPHOB+FQvOPNJC8Z+7mk+3vFIPKHyj+AnNb0MVVjK7eh5WYcPYWpSfLH3kPt9YR1xJmFu+7/wCvWml0LmweGORRvIxIp6de9QxWtvq8OZrcow/jGRU8Wk3GnwvHbMk0ZHCnr/KvXhjoPSTPgcVkFWF5QjZmxDq1xaCOOKQMiqAQMHNay+J7R49k0TKwGOBmuEttYisL549ShePA4xVb+20nuxHHDlXbAJbnH0q516DM6OVZhFXWp3jappxLPCWMmOOO9c5daokKvJJEXIyS27FW7mBLS1GFwzYAK8nJrF+xS+W8VzJgTHh3G3Apy9lKGhnTji41VfvYlstW+0ys0MbDjNX30O88QWCyMAqo+d8uVUDB7/jWVZPbaSH8oecx4znill1W9lh8kzssX91DgfpXhzmoSP0ehl9atFO1gm0yw0ybAmW4cHny2yp/EGnz6vdSSbkcxDGPlOCPxqj1OT1NFc8qrZ7uHy2lT1lqxGLP8zsSx7k5NMxxinnmkPNQd/Ko6RE9+9ZWtXflQiCI/PIQPl5PWtN/lRvpn3ql8O9Ek8R+JlknJeG3O9yc8fKdv/jwFdOHhzO54edYx0KfIt2dt4F8DQ6Zp6axqdsz3LoHiVgQI1I446Z5rvYmIs7aQ8zyRqAg4HTk4H49qs6Pa6ilvcR6mySLv+QIONvGB0FW541jAeGIF8bRk9MV2HxV7u7PJfGthFpfinRNdssxubyOGcqMbvnGT6clq9+s5vtFlBN/z0jVvzGa8X+IizSQ6NDMEEkuoxqqr/10T2r2XTYzDplrEeqQop/ACrRJaoooxTAQ9a47xbpe+4g1AAkoNhPoOT/WuxIyayfEreX4evJMA7EBH5iufE0fbU3A1oVfZTUkea6heQm5iRJAznO4A9sGuKtmNndzKylAGO33461f1HX4oJY5LdfKmAyS+NueeOc1y154oae9G6JWlJ4ZemTXh4fBzpe4z6XD4yldM1poZmQmJs7ju96zXvZ7ecJJCdnQn0qzHNcW8PI+Y9+1TxXkN3CBMgz3HpXUk46M92TbtyaMlW48sqFkUhlBAJ7VKTDMNrptJ9az5tPWQ7oXyQMAZ6Co/OntAyygsB0Bpcqewcy2mi7LZuqkxHK+hqlKjgqHXH14qzYXwuc+WSCOqntUV7JJOp5BbJFOF09QcVbmiQtG4+YDNMghkmkcklAB6VpW+l3q2sbiMuvXI/rSukkSZdNqnjI6e9P2qTsZuHOrpluy1JYbRg+DIvAHTNW4tYDwSuRggcD3rnGjMedrcHmlQtg5PWm11RcaMJbrUvx6hPPeHzYo7mM8lDxge5AzTXh0631YSR2AiVWDHErNzwe5qDzhFHkcEA7jWbqOswWcQlJ8wv0289K1jUm9EcNXBYWlJylodRea40zL5aABfuk9qzLi6mupN8r5bHXAFctY+JvtN5skXbGeldECCuR0PSnUlVStLYeAoYJ+9SjqKMZz60UUtcx7iS6B2oNHbOMfWp7WzubyUR28LO57LzTSbehM5xirt2RX706KF55AkalmPQCu50f4c3U4EmoP5SH+FSd36iu70zw9pukoBbW6hh3JJz+dbwoOW542KzyhSTUNWeX2XgTU7u2eW4UQRhScPkE8fSpfgzY+VpWoXEagyPJ5YJ9sf416R4h1rT9I0udry7hgyvAkYLmvMPgrqaT29/YGTa6v5qjj5s//ALNdtOn7NaHyeMzCeLknM9aimESsLmdWkXljwOP/ANdY99rElvqccBiY2si8OB1Jz3/KjV4BNp91HGWFxIUc4643j/A1keI/EMXhvSBNcyCQtEkcMAA3M5OMjv3H5VRxGNcQLr3xO0zSIpDLDY/6TIxPCv8ANgH3+SvalGB0rzr4VeHJ7PTZde1Jf+JjqhEzZP3VOSP0Y16PVoQUUUUwErF8Wnb4Vvz/ANM/6itqsHxm23wpf/8AXP8AqKAPA5IUuFeJxlSc1hXmjSwnzk5CdG9K6FfvH61ZQAoQRkHtUONyozcXdHIw6vLCAtwm5e7Jz+fStKKW1vEzHIAfY1YvdDWYF4CFP9wniueuLKW1l+YNG47iuedHse7hs4lCyqamuYrm1O+M/L6jpVqC/WX91MmP61iW+r3NqQJUMi/3h1rSgurK/X5CA464PIrmlTcT26GKpVPgl8i6LaNH863O1sc4qRLZrydVjGSAOO+aqi3kWVSrgrn+Ht9a6vTdOHmJMD0AbnuRzXHiKvItTrqTUYXWhNZW1zpcSCRgUlxwOcev86h1i1W1k+0IC9tOuJB6e/15NSeIWEltFcozAqSOO54qBtQH9jNBKhfgEfU1w0+ZNTOSm22p3OZchWKoCFydufSkpHbc7c8jrUNzcC2tXlPJCnA9T2r1oxbsj0ZVfZwbfQwPE19JuWztydwGXxXPi1kdQrylsDOAeld94M8FXPiy/kuZ3Edir/vJM8nnoOD2z+Ve1aV4a0nT4Xt7CwRRHgFjnnvk816VOKgrHwWNxc69VyufKbW7xNuRs45rpNE1p3VbeQbj0DV6v8QfA+n6jo9zqunW/k3NsC74PyyKF59eePavHdAtnuPEMFpGVV5WwpPQH3pVIKUTXL8VKhUu3odkozjn/Gr2n6Re6pJ5drAZD3x2r0bRfh3aWoSS/cTtjO3Py/yFdnBaw2sYjhjVFHZa5Y4dvc93EZ/GC5aSuzgNG+G44l1OZSf7kbHA+uQK7my0uy02Ly7S3WMfn/OsPxF4/wBB8Nqwu7kyzL/ywiKl/wAiRXjfib416tqQaHSU+xRf3iFLEfQ5rqhRij5zE5hWxDvNnuOueKtG8PRM+oXkaEDIj3AMfoCRXj3ib45zzq8Gh27wKR/rpQu78vmFeTtcX+sXYVpJLiZzwGbr/SvSfC3wN1vV9s+qOtlb5yVLfvCMduCK2SsrHBds4a3k1jxnrcNlLetLcXJIUyHC8AnoB7eldBLoHiz4banHdzQmPyjxNGco4ORjkZ9e1fRnhX4e6F4SUGxtw0/ed/vnjHOOPX866eSCOVCjoGUjoRTKR84p8ZtSvEW2ttKQ3kgChw+cn8q6nwT8P9a1zVY/EXi9y5Uh4LcnHqckAAdx0Net22j2FpIXgto0Y9SKvBQvQDA9KLAIiBVVVGAowB6U+kpaACiiigAqjqlimp6bLZy/dlXBq9QeaAPnXUtMn0nUZLScfvE7+3rUcf3TXtfijwvB4gtefkuU/wBW/t6fqa8ivtMutJuGtruPY4PHuKBFZaHiSVSrqGHpSLwcU/jrSsCMm58PQTkmFvLb0PSsa68OXkWXWPeB/Eh/xrs0yKtRdOealwuaQqyi7o86jvL2z+Vx5igY9xXS6F4lEsf2Sc+S/wDAW/iHYVv3FvFOuJIlYVkXPh6xk5EZQ9flrmrYSFRano081qrSWqLU16l5byQtMinOCPTFUReGG3lTcGDDYPw4qCXTSibPPZkHAD44/IVR/sYyy5EwyOR/nFcscC4ndHNqa6C7+Dxz6ViLLP4h1m30iFAgecQg+5bGa2riL7KTFu3cZJq58J9OiufFl3dSkCOBJDvP8J3A/wBK6qVPV3KzPGOdGPI7XPV/Dk9tpl1/wjkdoyLaqh3noWYbvX1J7V0UtmIraU+ZsRvmdj0AqPS72G8ZhCjlY8jzWxz9Kn1D7IsDpelfKmHllT/FkYxXS9T5wwXvtG1OKaG1vPO2xtGwQggetfP3h8ww/EiAO4VFuXGT06mvoPxFeR6PoN88UKJBHbOUb1O3PH618o6mZnvnuSjKsjllbHXJqkLVH034j+KugaBCEikN5cYx5cODjjvkjivHvE3xZ1zXd0MUgtLY/wACAHP5iuT0jw9q3iG7Fvp1o88jc9QP5ketex+FvgEPkn1+7YDvBEQMfXIP86a0FdnitraX+tXq29sklxcNyFLDP616x4Y+Al/e7LjXbg2yHkxI3z/yIr3fRvDml6DbeRptpHAuOdoxmtQLj6d6BWOf8O+DNE8MxBNOs0jbHzPjlvrXQ4xQBijBoKClpMUtABmiiigAooooAKKKKACjFFGKAExx7Vnato1prFuYbqPPow6itHFGKAPIdb8D3ullpbYGe2HOcjI/lXMYYHachu+a+hcZrC1bwppmrbjJCY5Tz5keA36g0CPGV65xVuHpXTal8Pr62zJZuLhOy5AYfngVgPZXNpIY54HQj8aADFQzHirAQmq84IByKAMm65qvb/61voanuTyagts+a3+6aFsF+hl6k3+kv7L/AEre+DUsa6hqisNzks+098dq5vUc/apsZPyZx+FZXgvxK/hfxQt6w/deZtmGOdhYE4/AVjH4meliX+5gfUCPM1zGI1CIgy6n8MVWnEeoWhS7LD958pX15xVOx8VaNqFrHdW+oRCMnc2Qfy6Vy3ib4lWVjFJYaDm81CTIVlXIQn8j1Iq7HnXKnjiaTVb2y8E6fOZJpJA0zf8APMYyM/UOK9OPhDRbjSbawvNPguIYV+VZFyAef8TXL/DbwVPpEcut6qu7VbzcWzg7AT047fKD1r0cVYFOw02z0uIQ2UEcEf8AdQYFXAOKWigAooooAKKKKACiiigAooooAKKKKACiiigAooooAKKKKACkpaKAEx71FNbQ3CFZo1cHsRU1FAHP3ng/SrrJVHhb/plgf0rnb74ezMCba6BHYOOa9CpKAPFtS8Da7Dkpaean94Oo/rWPbeG9XNz5X2KTeeAMjr9c19A0negDzXw78MrZZUv9YV3uMgiElSgwe/B9u9TeKPg/4e19TLbRfYboA4eBVUE+/wAuT+dei4xmilYpybVmfP6/s/X5uMNrMZiz18rnH516N4P+F2i+Fds4Vrm8HWWUKcc5+XgEdq7rFFMkQLilHWlooAKKKKACiiigAooooAKKKKACiiigAooooAKKKKACiiigAooooAKSiigBaKKKACkzRRQAUCiigBcUUUUABpKKKAFooooAKKKKAEzS0UUAFFFFABRRRQAUUUUAFFFFABRRRQB//9kA/+ICuElDQ19QUk9GSUxFAAEBAAACqGxjbXMEMAAAbW50clJHQiBYWVogB+cAAgADABMABwAGYWNzcEFQUEwAAAAAAAAAAAAAAAAAAAAAAAAAAAAAAAAAAPbWAAEAAAAA0y1sY21zAAAAAAAAAAAAAAAAAAAAAAAAAAAAAAAAAAAAAAAAAAAAAAAAAAAAAAAAAAAAAAANZGVzYwAAASAAAABGY3BydAAAAWgAAAA2d3RwdAAAAaAAAAAUY2hhZAAAAbQAAAAsclhZWgAAAeAAAAAUYlhZWgAAAfQAAAAUZ1hZWgAAAggAAAAUclRSQwAAAhwAAAAgZ1RSQwAAAhwAAAAgYlRSQwAAAhwAAAAgY2hybQAAAjwAAAAkZG1uZAAAAmAAAAAkZG1kZAAAAoQAAAAkbWx1YwAAAAAAAAABAAAADGVuVVMAAAAqAAAAHABHAGwAaQBtAHAAcwBlACAAYgB1AGkAbAB0AC0AaQBuACAAcwBSAEcAQgAAbWx1YwAAAAAAAAABAAAADGVuVVMAAAAaAAAAHABQAHUAYgBsAGkAYwAgAEQAbwBtAGEAaQBuAABYWVogAAAAAAAA9tYAAQAAAADTLXNmMzIAAAAAAAEMQgAABd7///MlAAAHkwAA/ZD///uh///9ogAAA9wAAMBuWFlaIAAAAAAAAG+gAAA49QAAA5BYWVogAAAAAAAAJJ8AAA+EAAC2xFhZWiAAAAAAAABilwAAt4cAABjZcGFyYQAAAAAAAwAAAAJmZgAA8qcAAA1ZAAAT0AAACltjaHJtAAAAAAADAAAAAKPXAABUfAAATM0AAJmaAAAmZwAAD1xtbHVjAAAAAAAAAAEAAAAMZW5VUwAAAAgAAAAcAEcASQBNAFBtbHVjAAAAAAAAAAEAAAAMZW5VUwAAAAgAAAAcAHMAUgBHAEL/2wBDAAMCAgMCAgMDAwMEAwMEBQgFBQQEBQoHBwYIDAoMDAsKCwsNDhIQDQ4RDgsLEBYQERMUFRUVDA8XGBYUGBIUFRT/2wBDAQMEBAUEBQkFBQkUDQsNFBQUFBQUFBQUFBQUFBQUFBQUFBQUFBQUFBQUFBQUFBQUFBQUFBQUFBQUFBQUFBQUFBT//gA8Q1JFQVRPUjogZ2QtanBlZyB2MS4wICh1c2luZyBJSkcgSlBFRyB2NjIpLCBxdWFsaXR5ID0gOTAKAP/CABEIAIcAoQMBEQACEQEDEQH/xAAcAAABBAMBAAAAAAAAAAAAAAAAAQUGBwMECAL/xAAbAQEAAgMBAQAAAAAAAAAAAAAAAQQCAwUGB//aAAwDAQACEAMQAAAB6pAAAAAAAAAQAFAQBQAAgSEAJAECIxp5omLZLDSAAAAACEEicU4+zIyEeYROxo8VbGnE1tlF7m9JZAAAAA3Z1q7t8TY1Wpfo6j7jtQq2/wA2m/QeFuvxn0yXzlyXlHU+B9Tu5woklAAPCKq6PlY1sqSWn253o6j3juaddjljv+VdtW24uF6BvKdyjoXPGL8zK1+phkSIWcgBEM2dOsrfDdIsxzHNMbi870kYq+i3L3l8eemc7OTj1b3XCzWfoPPR295/DwfV9eUer6zKAgiKlv8AlscZt1L0ULp9/VrdRi1XpN1vGvV7zUeodxmrdGz7HMy6+nz36Py/uxzLT5vZ6d5/QXGFmSY8RLFr3cv93wUqsch3qdiH6OtSOuzOuZ7HZpeg1Oh5pl53bfowltfpxuO/5yNVzi2tFfpjp+BVKIjFbqU5yvZweOtp2fO5uj5Px6H5lLrHKdK/UbqnahNTvY63VzUey66rbNo9fjr9mJ9Pw0h3eK6ZsZWRsopE4MMqF8D7uIWfSaN/fp7YbLFZ414aXc+cOna+c7uWW7tpx/gfS9rke9aKvqcSzpbeZYXa+QWqqYNsWrMENTXsob5z7quO96bT3bdnDasa2y1jttD1hkz2eQ57NTRR9euFoid7dSduh4G7b3jI2iwNkSqQIjk2rYrat6h6o+zy65zxbkXJ52hZuM9+7Bep86adlCzON9QkeWi0r3h8l/ydD7a0rxysCZvLKFASHKqGmMozovaFP1L7y/SzjhU4/wBPpxLtci/+n80hGeTvW7Dxv4tEbNU3l0iyfk5j0ACEERRMQic8S2YbtOj1WyOm6W+T0ts5FRZY0DljeMuhWTwkFAAABBkRUpETbGGIY8Ohu68+ic+dENkXTL2kAAAAAAAQ0yLEHQ347HM1std3JzAAAAAAgoAAAIAogoAAAAAAH//EACkQAAICAgEDAwQCAwAAAAAAAAMEAgUBBgARExQHECASFRYwIzEzQFD/2gAIAQEAAQUC/wCFMkR43rcbDXtr1fc09kF+yZYijAkSY9z7VVrP3VrBFXHj2qT/AKcJyIuxiUP0uNwSD+SnPwBPKhU/4fbcdqzVxUooPFtl4dioHiFdSbna/lp+o8KZ6r/PPLdsjtqduNVitbUaFVY6A43YgU5sa86yXp8x5tg3jJcitCpSqNJmptLhoBhS7Wgd2M4zx8rZ3CCVeLMQ8dpkizFb2evjHuhm5y79jdWNKB9rXKQmut5scy4GPmzq0fENstv91OZZXINQO8K9x8tgew/Z+X0591xElrZzy2q/BuE8D619lIaoLVd2DV4IkPyxlU1bZgk3dPyZSsZEqWO92V9Kl5e3Y+EpYjhi4WgPNxiLQbacuZys5DYKU1guZZhAiRSzTsrDCSBJ/aaNdzrmPWA8rL5FEpwzsRweMUgU5aBH67/Hve3g6MFptDNkqS+Y4vT+bMwiKLI2JsmVsiq4IRB6LOogNwmvNtW9jRltbD+GiNkc7EM4QBzMuvLchCyGneU6mq01XEfswXshffM/B1ccMx6xk2WRiYxmUstZ7P0QIUfeXhC58UTjzHjQybyitr9qUsz9mmPFX0So6cKtgYvTPGYar7NAwyCxx2sYlnA+hglgzA+Jg64jj6uLZ8Sf3WWYTEOQi2kyS91EGHp7BqZK/XVJDrkL64mijq9VmloPfZsTPaC615AF6x7kCZGPIoV1fjtPreKTHG7Y5iJuFROA2GIIUzdnmt0gAOW25U2sjs9suN5lW+oAlK7XqhzYLD4XkJDuyAgeDFLOEsNmBmvYWmd8kPCsWMmg1ORea9qilKt6iUQZV2gUiZtfuvUaqp42G3X+2n1/0eYY5S65X6+HK48k6fHZdcjbwMAipeYHA2GKFU3MrGWjkJcR0lSJtmUCCur95h2aGuVvrkNB6PRxytqE6gH6bKnWtYWGntKZjCQp5/prjGeiegWY1dkZKJEOsL52C4+n9zCYW8M6oqXDujNZ4poTTGbf0rq34VvpeOBhiiGH+/8A/8QALBEAAQQBAwMDBAIDAQAAAAAAAQACAwQRBRIhEyIxI0FRECAwMgYUFUBQYf/aAAgBAwEBPwH/AKJIQP2OnY07UPCx+SaXpNyjqG48KJ5kGUzx9btpsMahsy2LI2+6Y07QET9PbKPH4bb5JpcM8BNa5nDgoduMAqLOOV4TK8ko7Va0uzvxL4VKkyGReOQvP0J2jcU67XlZgeUHB/hD7rUvSjJUTOMlD4whA53MYUcNmNVH1JO2Xtd/6prUNSvuaQVPq0ckW5Sy19gkYOU6fPDQonFyJwFdmc7tanTbezC0yQePvvWOpLtHsmSg4BUVITNzG5Uo4oGeqg+vIAIjynUIZmeo1ajocje6B3HwjStNO1wCraDLI4OmdwrFBkXEajryZPCdpU8sfarGlWI/3Tam95AVLT54I+pIMBH4WPqASeE6rMWkgK3pFoM60fJX9t8XbKPCq6ljljk7UZHjDlBaaO6M4KoawXHpzKSdu3eU1/Wlz8Jk6DsuVWvuzwoo/kKejDI3vTKlGu7LRytac3+thv2UKLrz9rVBo7K7slGGLGE/TBIdzVqv8Uh2mw7KtaKYfUh8JtuaLyFBajl48JjyRlQ3fS6byoY3bMsVeMEZcsZOIxlabBIxmXrAWvXyz040LUnuVLcklZscisBNbvcGqrGythrfKgLpOHKSPPsmeh4Ux6va5f4qqeS0LWtBAf6TBtVrRJmO9EYUWiahH+hUsFsPLJOML+OsmlrAYVfRXOO6YqGrFCMMCI+Ffsf1oDIrM5nkL3I8j64Ubum7eoJWyt35VZzCjLIx2ByF2Sce6dDhYLuAUGEnD0dPiemaPsce7hQ6DUdIXvO5V6kVduIm4CA90VPcgr/u5aprbbLDEwfeyZ0fgrS9TZCT1fdQzte3MZQIPDhymB0bflSTbT2eVFJ1G5cjsiGVf1mRzy2PwqOoOil5KgmEzNwVrUq9f9yrn8hkk7YeApbMkpy45QwV4+9p28qG5JGctKra0fEwTbkTmdjk1zmv3fKhw0kBaveZFCYweUe45Qdzlf5SYR9MHCfIXfscrOVj8YcQmzvCi1SVgwVR1V75NpWqO6lk5+pCAx+fwqJzMFePrn/Ujd03bgnvL3bj/wAL/8QAKhEAAgIBBAECBgMBAQAAAAAAAQIAAxEEEiExECIyBRMUIDBBQFBRI1L/2gAIAQIBAT8B/oicfmz9uYKXI3YjTPjP4kXcZ8mEBY3nSac2HJluK6sRzuYxepjwDn8HUpxWMmEkxxD4NgXuVayn5YC9zWXF14nUzN02F/SJV8O1tN+5/bD6e/vrG4xueJ+4XC9xmR5alg5ERGtb1SvTbWys/wCmcGCvHLRsfqBZpKVUbz3AWb3T4pUflejuLMfbVUduZj/IbGTuWEv7YVdOWgusBzKNUrcMJ86ojiW6wAYWJbv90awYiauup/VE11VnKR7QqzU6hLPQPGYfGcRbV3cyrU152GGpTykto/2ChV6jVf8AqX6QDlZWrZxCuxeIUmI7EQ+oSp2TqHUWWLjM0+d3M6mPF1y1CHVM5xMZOZ9SQMTTfErPbK9Xnhp8oHkGPWyTjow04bIlj44j5PUUAdy0hjxACJp0/ZjaVGbcIte0w+LOFMfUPZZgmU2N0YrERDngzrqGy39GaXV7RhjKtYh9xj6mg9xHqYcTWBQ0N/HELk+KhubEC7RgQD7LVLLgT6aym9iYE53/AKnpaFCIrHPMJxzPf1AWQz6kHjE+qsVdojMWO7PgGKhaVUFDmGD7bKUfuPV+ljV4mMQkdy/UHdgTTWblzPdxKtOuMmWV5GBHXHEWpjE02O4tagceMQD7sRqwY9E1NTqvplSnfl5pKtpOZRX6oePBpBafLAg/IVBhQER9EjHMbThV4lYwvHgfwrepX7Zj+GRmAYH9F//EAD8QAAIBAgMEBgYGCgMBAAAAAAECAwARBBIhEyIxQRQjMlFhcQUQIEJSsTBygZGh0RUkMzRDRFBTYsFjo/Dh/9oACAEBAAY/Av6FdjULQO/Qtiu6RuE3N6AVhHibfs78fL6W7sFHjV1IYd49g4OXFok4434D7eFdIA2qadnnQMkIeCT3ZFuK2/oyaT0bODmGzN0v5UoYjPbX6IyObD51GY90PfTLQle7n/OpPr+sYLB7+Pl/6x31HCSxldt6T51Hh0W0SCwFRry1roG222GnxmzyyC+RS/KiCbt30nl9Ds4WssI4nUX/APfKotrgSYx/Fh4LR6NIjD4V5U/1z6usfXuAvWIxxcyGSTtXvmrEYlstkWwyi2pq96yht34TWEx0M4mhE20ZW0YU0kjBUUXLHlRTpAhW38TS9XU3HePbeX3uC+dZ27cm8b/h6tp+6z8pYjlNXLxekcLxPJxRtJGF/tWyvUUv6xDhnTrHXjpenTFfuipcPmYtWJDX6LIAyOSDVoF2n+XKpY5QoZQDmTxv+VSMzAi27Rw8bhMJH23v2jR2DZntfMOFQ4VJpLPclL6W7/bGDQ5lh7Y/99lb6FP91aSMqPOt1V2ZUWqRJZVEWT3DzvRA3x4ijh8xWOxuW3qk6xCqrlZlvf5UI0Z2RdFB5UvV7WA6WUa1PvhbqnH7amw2FZtqdMw7PiL1lmVt74t9aMu427dETg3jalnO71Frd5t7NzoKbLKHbkF1qQyErIWvfnSA9Ylrk1a4v8JpBAcuyHAc6FwysPeFLM9spOXMKdB2351GhPXzamhcX8qR1zIl9SV5U8gm3goOZDRXOePu86Z3+6kjYEG1hccqv3RN/r2EkdDJnOUAVKFfKOSR0deXC1OcU9id4B+NvOhFg5IpMvZ2g1++lTEQbOTx1BqxOf69ZpoAGvbUUTD1HOyndP2VtMYU6NHv9XwPhQYzpDDbQc66Oi7QEXz870AxSKNlPWSHhWSJs621PfXhUeFhuXb4ePlQmxmDGLwKWLxTFWIHzFRelfRwdUni3ULXC+HreQ8FF6lxEs2WFRojLo1K6tuMLgj3TWdLSfOrjjltY1Z9BWzzbh5HlQ2Uxik4WOqmicQmgNxYXU0rx4kLn90a0C5z5tQFFjRaaUiDkTSrHh80oFjLL+Vam/qaS17cq6dPG/SMQpaKS26i/mflSRNvDKEsFvcc6jT3VmlVfLOfXJE3BwVrohFrXQkmy8KSJmsV+dLezRfEvGrNr58a3W07mrQ6ildtddRT2ADcrUM8Me1vxW6n8NK3MqZRbTl7GSCJpD4VisViJRnXLaNfrCoRfqY4Roo4ALWJn0y2GwyHeLngp++sFhG7cce/9Y6n8fYxyK9utaw5cabbIzZufdXUSBv8TVpU2b94oqWzryNEzw7jHt0U5j8R3+qRIbCPgG5msx3lPaoOvA11ERK/GdBQbFvtm+FdFrZB1eRf5fD6/f3U+AwWFAhttDBHqzAeP5UmB9JYbEDFRLsiFXtjhrfhUPpX0pB0TCQa4XBtxv8AG3s4wOMp2rH8aAcXrNCb+WhrJPHtB5WNDfsDpY8q2ae5qtRag208aTCw788xyBRxqI5EnnIu+Itm5e73V+kEg2UqEBiFtmU9/j+dQY7ErnfXtndFGLDHpso0yw9gfb+VdGwwkCt/L4QH8TSy+lp+jp/Yh1f7TwrZ4HDJDfi3Fm8zQcopce9bX2trFZcUg0PxDuoxyoY3XiD6rOoceNaIU8jVhiC2lrnjRkeQMo5VisS4v0eO40vqbDh99KI0MECC+U62FdGw+3xU+LkUIWcuz8zYUvozDx4mWOMkbHgq+f8A9pZfS+Izf8EHD7W/Ktjg8PHh4+5B9FadN7k47QotB+sx+Ha+6srqUbubT1t51i4HfZ7cAK3iOVGaeURRLmzNJwr9MvFssDhwY8FGRa/xP9PaaJZPrCurZ4T53FdTPE/1t2smMYRQ31yG5PlQOGZ8FiAP2inMG8waR/SfpCb0iqdmI6L8zSoihUUWCjgP6B//xAAoEAEAAgIBAwIHAQEBAAAAAAABABEhMUFRYYFxoSAwkbHB0fAQ4fH/2gAIAQEAAT8h+deZx8NfHcv4LlzGgS7g3I+jC1UyXMX5O702Q18q5c70hdTvFhsl3/izTxze7o6ntcMVLAd0dp1xKQl007I8yo0eomRu2eGDzVdJfNS/k12jR1dIXUDQL4IDlt7a8cQlwBa16EIsQ4HWOfn36fWbnr1VXKfeVkBH0Bglbuw+rK0FQ2lBlvBo1iEIXVQmYtscf5fwrMMhaEO4s9ceUzR6ZH1jglkabUz47lWf4qXK0QZdpe0xvXEK+bpbNGIVqHVEbL8HvKGQdo+Wh6pK8e53Lxw59IxhWkEUiNCqVeMuCGSuWJZL+K0QUydX9fiIibbtq4fnyws8wo/MP+ZmpVn3+mWzbkvAt349oSZvjSZLfoZ6ywxI4BreWuf/AGWbdOEXdaaSAK+F8HzApc+p4IbACK+OWWDla0PU6H/YtkZt3pzcAnrFdqniaS/gWbN0N5wp7jyy3jHJ5R7sOFuJ7yQ2V1t/5En2mBqio8jDQ0Su56grzqU1QOClVzS5Q57CgDtuIttQ+xkzqqQqfDzCBNeeXsMTAvF8jukCyLtNV4Vn1r23LTjEGPU/TM1/24oUDa8RPGHUGMxar0lcsRW2BUJ0NRgU8k/u00s1qr0vfETFbZCPWYNPc4gAjR3V0+0Sjk7mc/b7xcfkc8Doq5Y5iRzZl2xWd6nUVVdC6wshzimiGbQ4DygBwV9n5mn+LFrWFTNXm+JcGA5O/rHIpw6MIBJdVZz+kvnByRG0MfePftwL6rf3hQBVsN3nVzHvlbxXgYPbtnc6F/pK1rWcaAqjq2E8lEFHWjXvLSgVpq7v0iw3aBCTigG6Z0sGouOuiGywKG10AbY/oe7y6vDzxDBewxXOWbErfE3Mwt1L8EeGNcVIN/37l0Q2zDCWcfqcLZuisBAmhU7lIHkvEALK9i7QoBgkOvJu1DnGmBkkKuHqVE2FQYn2mAXZm8cHrBC7ELfGn1uV99MF8RJ+4+4/Mv3Wd0WN/wADvFwpBpCrepZ2JlU3j0/4VLMr5XRKnFJNNgrP9iWls6bGkHFnvU7yoQ+gqAvNHgmSZ6qiZ+UdE/cCSCiXZ+pQ5u32QFTEQWibbcsP86jLrg9XiEw847DLNcoGkWVlDljMbYm8tvQmgafweT8DtKXmdnEBYGRa0dv+Q3SLuzXiZCaJWIZtXJ2lMjhWpH9fqExhKo1xD8wAYl+x8w2MuW9S3OxTXCpaOi+ZZJv1XryxNiUCIe7Xlma9RE7HK3xinmVgd2sCgEK6+niPNTzyuO+cX/6YPgWSlF6KT2SV5VYdJ5mSeatT+5hicZo+Imu7vSnUSltZRveZjUBNGg8xLAdXk1LFHLNOjoX5YCBSnMc6ENZgsKN9UO6/cpwOjV6mvunCs4VnaynW2p1Oiw9LS8XFgQB76cs0JSYp5hT4ReBia6z8MxhCHkhOyPTczjHW77yiWKLcOm8zShWkaYa41g92GeY+tOlzAySgBPSMgUddRVlyi+7c6CLw3u6v4dnrBXZpr6u19ZXyclo6f0WNCbAxH5eIvNcJWPEFQ9y+f3UCG7wq6kt3LIJjU/Na4d+kv8sKDcU99H/IA18m/gqUWfGWokuXB7Bz7w1ew3X5hrMyr9ErjmFGgOBOeZ3Ki1cuz57RO2IVZBtAaA+VXyK+d//aAAwDAQACAAMAAAAQkkkEkkEEgEggCRYg2tIkEEEK3QOAtWAkkg6+MrYJWHgAspojAGljMArtBYp/38pARzSDj9E7o8N7Hqj2IJzI66dkKI0QXDreiLTiGYYbK+vHW/MeMR8hkih2fK5G0AyJRC7kZQEEktaR97dggkgAIkdH8EkggAEkFfAEkgkkkgAEEEAkkkn/xAAnEQEAAgICAQMEAgMAAAAAAAABABEhMUFRYRAgcTBAkaFQgbHB0f/aAAgBAwEBPxD7tag37PMG5UuX9OlmsQe2A69LlVvUz1mKwxAyj6XMJHxFADmOnqHQ4g2XHJEWcwQDShG7JYy44gEC+te3DfiIk+SGcDkjo3pSoUGIjBV8xSy9oOUyR3aWZRKgsuIIwCEZ3NMy32LUohy6lV7LBY6IiI/qYILP3AAX+gRhSoaQLyTHYtxUxG07IVkzDghkKtllWSOWzXsNywW+JlHEJYYxJ+5EJhUJkxSSvusxptrk/wCoSrnqfEDjEa7qXbAJVaiwysV5I5FU7yy0HyShQlPS81AQMxXJiHHsWwgPCYNYF+ZvWeIseAagNaeGWbCS2WvwgJRARTcAtzYoBohEBRKs1d1HVCmqr5gAXKJRuX7qu4bO3zDpH/JniHRqFzp4IEvY45J0PLxFoWLdQKUPmOt3AyIytkXZAA5ZVsho9PMHjBADWEA+hXHLCAp3j9mSJnpCCs/mZGYYjwz4jBcujMIW23cHWz8zLqg7NXmAKngggJ55lVQ7Rqcnk0IrN7lIwjhIYOUZacyoUCuzUbu4WdKP8RCaab5lQtbtlgVyOY0IXWJzIm/EAahPMwVnliU+j61uEo0sIv8AhFJleGA4XaZQ0gLVBuAQblreOtR/MtjI9w4mIW7eiXpeTmMXJ7gotgAol+1lvCH0EVVw7ls2cLHFLIqBhmUBl8qVAbJrk8R5VTMFEKFQK99Rs1BomSuN3cG5KgznljepkbIhLPQUu/pVK9bVcJE/Qy5uV9hVuYp8MZbGV/A//8QAIhEBAQEBAAEEAgMBAAAAAAAAAQARITEQQVFhIDBAcaFQ/9oACAECAQE/EP5O+h38ly9x+7jkC+JE8+mXThY1xNHG67D8+jf0eZMiMnZzId56D1L2WWsM5K5gRxLnmPwlyXLPxP8AV9o3QG0exxywk4xHIRX5nRsONX2Rlb7NL23Ht38eK+CYwe0a8T0B5xuo6fVnQhbfg+4NexD2EfLwn3CxZGl8Jq8eJKB+A7PeEDeSj7pBD6OD2sqeXhXnvaDtsI9t2qwASIJ0vgH7gOvmE02ETlqWF7bIOsMCvj+Q+S2OYr52zg0u7Qt/FxJg6SfntyiZr73vq3rxk90AZ6FzIgr2djxHFZxgae8R2GfcXMY+8/PEoj0kPGJQhepq+yR1yw9Ib/CxRcYNL6ei1HnJ1q2z5wL2UTwddgOLJqtkM2m8/wA3wSztGAxEewHkl2WHHyR49MkfkxkJ8GQwOpRwMvAsTE/oJcdXYQD3rKLAtcT/AHO52TZPC3GevIMePXx4lVFmYcvckM6vIsGvHJ2wqBH9xC4SffI4TjYSx2NzGbh+OSEz0Al0mGIzHzfBlvr2uuEG26SK48T9fpywgPuzyXAJQQRmj5hz0/u5+4eyPG1mFBh/BwiGMeEYf8H/xAAoEAEBAAICAgICAQQDAQAAAAABEQAhMUFRYXGBEJGxIKHB8DDR4fH/2gAIAQEAAT8Q/q35/qS/hFGWjJhoxLkv4X8c5cuX1+Qb+LnKYV04B2OWXNmeyKFA8gXs1xnKKBhBs3gdr2a2oQmj8mj8T8Gj8TeIu31MR9+HHhNyUf3wM1shp4pgBneRX/ORmiRFcTfIUd5dg5+yKRirW4+cBeLVHvQI/txh4mCztRQXwAamCpoDknaurZgEE2PZl1nP9Swya9+6FB70/wCmKIIdpEpp4RFXrjZjTfVRWMZw2OJ+sPuA4l17/WLNjv8A8yQIVQnI8MWHRy0R1geFnUlEBVd655cTxAWmAD0AY8ToJUTimHus1xWaAbYogDASSE15rnWgVt2rnOmDA/LeGNzsHGFXfKqQCG7HpYcCCzUkqkRaLzv05xEwqkKL03WpyrjqL3edYnr6ma5UDM6YGWfe/GAjsAJXMsQYYHEN0tfiWk15IaO+VnLSbchJxTpsnX0mHzppzVxTI8vWajqAgKrjSZCowI9xpRyBjQEPImnCpMr+bi4hiIUb1D8BV6WbryDSzZ5Y178mOu99Hf8AbJIo8FdlCH2L7yK1rMqhU7ON1fjIXMCX7dMCCcleTplBzb9kBoKkBfB1Sqkaulal7mx5NRAhKI8IYVai6XhcJgGy1e1p+D9YNAMAaMU9dic4IXDyTaCadH7w4u+YzyplOPL6EFIgj9q0Tt4hk8dFSKoWDyWWau81G695Hhy5+sXTmjBU8aRokutmjs9eIosrrpHRw8Y9Ot6Q/T1N7xrRCiWzsaXtPpiD2uDR4LvTrJw7ZmeeVH7xCDdDV0wp4NDbE3iVEnYIhoUA6Q8YE50EMCkHF5CTvI9nUTxQDfxzis7gzk1rev5Yn4RlA2l2UKQeuN5U5PYF3AsNhDU9bkLQuaKUAuyVA0wNSYiiAQh2V1xiXZtzeWdYm8YH06qA7V6x91Vega41L3cCMirtQVkWpHvONWYcYoqib1H3jkINM/V384dy2S9MGHh0ic4nCwv/AF5+n7xEWUOj15GvXHFMVXLaqFh+V9uPGMgC3aoU/WmPSvQcd8Hv+culpfJFsWgWa/znBZqAOrccBQakzdSUp7CiW/46xKWMlCE56f5wE9G5Lho4NN30/BAaJR01/R/li0SR7vP4k8ZeFZ6UpLodC+DHZOgQE8vLQ+DTrNjWiBXDdCrb7+cHM2mUXzdz4cdY1MUhgwSE6gOdOEKxjwu5oL4/bNiNTG5B4nAWGK9Lovoau16U+M2g8sqSCZyBsPzg8i9oSBJXyQ7e6Zy0K0QBrReAYBPkfYHEkTRNXW1cnsWKmgDpd9c+BxiqO4atAHABOr3hykRFPBONf/eMfh8hipuCSw8GVEM4KLK5TY8nAMuJDCRQrqgoNBgQXPhnZpo9Iz+2WTELshKKrroBOkKMKSPhmMHzyIKKNSgTBPM39h85Guj4smgu+elMBgAodXr+/wDOEWRJFmnI71yf+ZODo7D9areDvjGbSrtGqTCvRj/zZmh86KtqZrdqSNI1K5HV68YGhdtvE6FeXGWwAZS1nBy7p6MeUpsaHgOj1h1kMJpTEuUoC/OBKC01eqyibO4Tnip1ZygY8di9k5yofR6An3cjDPjiGDik0L+zijsjABEUVoJ/lrNW3CkQKHiPLhNMB5ry9bLcPf8AZcwsX7uMrPV9+lf/AHHhto1AXr/5/bGkTABOTT1pyveUocBQFa70/DjQ/a2gMEU0EultbkhSIng1uxgb5941K9i9/Pn7wdG/gxEN6+dYC0tXK+TX2TDjJIkdhzgXQfeENJBUteYqABxv5ca45mQcXZFHsLvJhrL8s/P+Um+MKnoVVg1CdEZqZ7KUG2hTSq+XjEO1LYbyVJ8P6w8L4YKnKdfr7xXfKcwXztZ8YICAJM8cLYvSfbOlsQrSveOIOK68CJEu94bG39PYl3Hjpy3zgFuz77ymfS1f1jkdD+xv+CvrIrpq6PY/w+N4c03wOwNvNfBwl3YlLEKhqCoB0wRoQBjHioaNQ9wVGJiligKAajcQAuDE8Zcvpx798YeEQMrifKPvAT8Q/S5H8YubsL4NqH+tYI9CBc6Wn5J94oGLh4KGd62czbm0Q3O9dJqqnnfAZVbqTYAfST4wEUl91g64vF6q9ZMPYVFISCgJwF6MPl/5wujkuDiGwjL9wQrCkOq7BmmUSk+D4fD64z0msLrkdRB6mLiuiSDtA/S+Y4VVJjDxsbtxYXQYGaIy+JFP3gcQDAhPylc6V0Z1H6T6Gjp0u69cT/J7NZSn8Jr5y/AJCfq3JxP0I+gz6/6woGQIANJEAs2WauTZQAx0mhh55wZRFqSgBUkOu/YqIcaOWiqgGqv7uCah18eR1jAHAEwxx1X3ySFXbWcDjb/gYr7j0XOB1PJEyWfS2l1gp7wHvJ/RfTj8Yl6w2UM/7MT00w7EX9h1r7FfBiiVpVeFRMZGQnMzR2+MATdh/eWnDYDf1osT5QNuEz+UFqiaLQHMhzlh2J06enIOrOSuwAbtO8CE/wCFfn8tL7w6JkgXweT6xV44i/8ARwMNU7QG/EB+3CBWw3IhsFRX9MXZ5BYlrfsqveBCdGyOp9AH2U1gmPAhgA0AAAYcF/5SzOcUz41h/qYEucaw4/CzOf8Ag//Z;" vertex="1" parent="1"><mxGeometry x="140" y="240" width="77.52" height="65" as="geometry"/></mxCell><mxCell id="18" value="" style="aspect=fixed;html=1;points=[];align=center;image;fontSize=12;image=img/lib/azure2/general/Heart.svg;" vertex="1" parent="1"><mxGeometry x="140" y="229" width="32" height="30" as="geometry"/></mxCell><mxCell id="27" value="" style="dashed=0;aspect=fixed;verticalLabelPosition=bottom;verticalAlign=top;align=center;shape=mxgraph.gmdl.heart;strokeColor=none;fillColor=#737373;shadow=0;sketch=0;fontSize=20;" vertex="1" parent="1"><mxGeometry x="138" y="70" width="34" height="30.6" as="geometry"/></mxCell></root></mxGraphModel></diagram></mxfile>